<?xml version="1.0" encoding="utf-8"?>
<!-- Generator: Adobe Illustrator 22.1.0, SVG Export Plug-In . SVG Version: 6.00 Build 0)  -->
<svg version="1.1" id="Layer_1" xmlns="http://www.w3.org/2000/svg" xmlns:xlink="http://www.w3.org/1999/xlink" x="0px" y="0px"
	 viewBox="0 0 520 100" style="enable-background:new 0 0 520 100;" xml:space="preserve">
<style type="text/css">
	.st0{fill:#FF5500;}
</style>
<path d="M284.4,52.9h12.4v-6.2h-12.4V31.4h12.9V25h-20v50.6h20.1v-6.4h-13V52.9z M191.7,54.9l-2,9l-2-9L180.8,25h-9.5v50.6h7V43.5
	l-0.2-8.4l1.8,8.4l7.4,32.1h5l7.3-32.1l1.7-8.4l-0.1,8.4v32.1h7V25h-9.5L191.7,54.9z M258.7,56.1l0.1,8.2l-2.3-8.2L247.2,25h-8.7
	v50.6h7V44.4l-0.1-8.2l2.3,8.2l9.3,31.2h8.7V25h-7V56.1z M219.8,75.6h7.1V25h-7.1V75.6z M352,24.5c-3.6,0-6.4,1-8.6,3
	c-2.2,2-3.3,4.7-3.3,8.1v9.7c0,2.2,0.7,4,2,5.3c1.4,1.3,3.2,2,5.6,2.1l6,0.3c1.9,0,2.9,1.1,2.9,3.3v8.5c0,1.5-0.4,2.8-1.2,3.7
	c-0.8,0.9-2,1.3-3.5,1.3c-1.5,0-2.7-0.5-3.5-1.4c-0.8-1-1.2-2.1-1.2-3.5v-6.1h-7.1v6.8c0,3.2,1,5.8,3,7.7c2,1.9,4.9,2.9,8.7,2.9
	c3.6,0,6.5-1,8.7-3c2.2-2,3.3-4.7,3.3-8.2V54.8c0-2.2-0.7-3.9-2-5.2c-1.3-1.3-3.2-2-5.6-2.1l-6.1-0.3c-1.9-0.1-2.8-1.2-2.8-3.3v-8.1
	c0-1.5,0.4-2.7,1.2-3.6c0.8-0.9,2-1.4,3.5-1.4c1.5,0,2.7,0.5,3.5,1.5c0.8,1,1.2,2.1,1.2,3.4v5.4h7.1v-6.1c0-3.2-1-5.7-3-7.7
	C358.6,25.4,355.7,24.5,352,24.5z M330.8,70.9V57.9c0-4.3-2.1-6.8-6.2-7.6c4.1-1.3,6.1-4.6,6.1-9.8v-5.1c0-3.6-0.9-6.2-2.8-7.9
	c-1.8-1.7-4.8-2.6-9-2.6h-12v50.6h7.1V53.7c0.5-0.1,1.5-0.1,3.1-0.1c2.5,0,4.2,0.5,5.1,1.4c1,0.9,1.5,2.2,1.5,4.1v11.4
	c0,2.8,0.6,4.5,1.7,5.1h7.4v-0.2C331.5,74.7,330.8,73.2,330.8,70.9z M323.8,41.7c0,3.8-2,5.7-6.1,5.7H314V31.3h3.8
	c4,0,6.1,1.7,6.1,5.1V41.7z M481.9,25L475,54.9l-2,9l-2-9L464.1,25h-9.5v50.6h7V43.5l-0.2-8.4l1.8,8.4l7.4,32.1h5l7.3-32.1l1.7-8.4
	l-0.1,8.4v32.1h7V25H481.9z M440.4,27.5c-2.2-2-5.1-3-8.7-3c-3.6,0-6.5,1-8.7,3c-2.2,2-3.3,4.7-3.3,8.1v29.4c0,3.4,1.1,6.1,3.3,8.2
	c2.2,2,5.1,3,8.7,3c3.6,0,6.5-1,8.7-3c2.2-2,3.3-4.7,3.3-8.2V35.6C443.7,32.2,442.6,29.5,440.4,27.5z M436.6,64.3
	c0,1.6-0.4,2.9-1.3,3.9c-0.9,1-2.1,1.4-3.6,1.4c-1.5,0-2.7-0.5-3.6-1.4c-0.8-1-1.2-2.3-1.2-3.9V36.2c0-1.6,0.4-2.9,1.2-3.9
	c0.9-1,2.1-1.4,3.6-1.4c1.5,0,2.7,0.5,3.6,1.4c0.9,1,1.3,2.3,1.3,3.9V64.3z M375.2,68.1c-1.1,0-2,0.4-2.8,1.2
	c-0.8,0.8-1.2,1.7-1.2,2.8c0,1.1,0.4,2,1.2,2.8c0.8,0.8,1.7,1.2,2.8,1.2s2-0.4,2.8-1.2c0.8-0.8,1.2-1.7,1.2-2.8c0-1.1-0.4-2-1.2-2.8
	C377.2,68.5,376.3,68.1,375.2,68.1z M399.4,24.5c-3.6,0-6.4,1-8.6,3c-2.1,2-3.2,4.7-3.2,8.1v29.4c0,3.4,1.1,6.1,3.2,8.2
	c2.2,2,5,3,8.6,3c3.8,0,6.6-1,8.6-2.9c2-2,3-4.6,3-7.7v-8.9h-7.1v8c0,1.4-0.4,2.6-1.2,3.6c-0.7,1-1.9,1.4-3.5,1.4
	c-1.5,0-2.7-0.5-3.5-1.4c-0.8-1-1.2-2.3-1.2-3.9V36.2c0-1.6,0.4-2.9,1.2-3.9c0.8-1,2-1.4,3.5-1.4c1.6,0,2.7,0.5,3.5,1.5
	c0.8,1,1.2,2.1,1.2,3.5v7.3h7.1v-8.2c0-3.2-1-5.7-3-7.7C406,25.4,403.1,24.5,399.4,24.5z"/>
<path class="st0" d="M137.4,75.6V61.4c0-2,0.6-3.9,1.7-5.6c1.2-1.7,2.5-3.1,4.1-4.3c1.6-1.2,3.3-2.3,4.8-3.3c1.6-1.1,3-2.2,4.1-3.4
	c1.2-1.2,1.7-2.5,1.7-3.8v-5.3c0-1.5-0.4-2.7-1.2-3.6c-0.8-0.9-2-1.3-3.5-1.3c-1.5,0-2.7,0.5-3.5,1.5c-0.8,1-1.2,2.1-1.2,3.4v6.3
	h-7.1v-7c0-3.2,1-5.7,3-7.7c2-2,4.9-3,8.7-3c3.6,0,6.4,1,8.6,3c2.2,2,3.3,4.6,3.3,8v6c0,2.2-0.6,4.1-1.7,5.9
	c-1.1,1.7-2.5,3.2-4.1,4.3c-1.6,1.2-3.2,2.2-4.8,3.3c-1.6,1-3,2.1-4.1,3.4c-1.1,1.3-1.7,2.6-1.7,4v6.8h16.1v6.5H137.4z"/>
<path d="M55.4,62.2c-0.7,0.5-1.5,0.7-2.3,0.7H35.2v2.8h17.9c1.4,0,2.8-0.4,3.9-1.3l3.1-2.2L58.4,60L55.4,62.2z M32.9,46.7h9.9v-2.8
	h-9.9V46.7z M103.5,41.5c-0.3-2.6-1.7-4.9-3.8-6.4c1.1-3.3,0.1-7-2.4-9.3c-2.6-2.4-6.3-3-9.6-1.7c-0.9-3.6-3.9-6.2-7.6-6.7
	c-3.7-0.5-7.3,1.3-9.1,4.6c-3.2-1.2-6.8-0.5-9.3,1.8c-0.1,0.1-0.2,0.2-0.3,0.2c4,2.6,6.4,5.9,7.9,8.8c2.9-1.7,6.1-2.5,9.2-2.5
	c4.1,0,8.5,1.5,12,4.6c3,2.8,5.3,7,5.8,12.9H69.3c-0.1-0.9-0.2-1.7-0.3-2.5l-0.2,0.1l0,0l0,0l0,0l0,0c0,0-0.1,0-0.1,0.1
	c-0.1,0-0.2,0.1-0.4,0.2c-0.3,0.1-0.8,0.3-1.3,0.5c-0.8,0.3-1.8,0.5-3,0.8c0.1,0.7,0.1,1.5,0.2,2.2H28.6c0.1-6.5,3.6-12.1,8.9-15.2
	c1.5-0.9,3.2-1.5,5-1.9c1.4,2.8,3.9,6.1,8.2,8.2c8.1,4,15.7,0.4,15.7,0.4s-1.2-8.8-9.5-12.9c-2.2-1.1-4.4-1.7-6.4-2l1.2-3.6
	c0,0-16.3-5-25,7.9c-3.5,5.1-6.5,16.3-3.4,27.4v9.7c0,2.8,1.4,5,2.8,6.4c1.4,1.5,3.3,2.7,5.3,3.8c4.2,2.2,9.9,4,14.3,4.4l0.2,0h0.6
	l0.2,0c4.4-0.4,10.1-2.2,14.3-4.4l0,0c2-1.1,3.9-2.3,5.3-3.8c0.1-0.1,0.2-0.2,0.3-0.3c3.4,2.7,7.5,4.3,11.8,4.3
	c11.1,0,20.5-10.5,20.5-22.6v-4.6C102.1,48.4,103.9,45.1,103.5,41.5z M64,66.9c0,1.8-1.8,3.6-5.3,5.5c-3.6,1.9-8.7,3.5-12.3,3.8
	h-0.2c-3.6-0.3-8.6-1.9-12.3-3.8c-3.5-1.8-5.3-3.7-5.3-5.5V52.2c1,2.7,3.5,6.1,9.2,6.1c4.6,0,7.1-2.2,8.4-4.5
	c1.3,2.3,3.8,4.5,8.4,4.5c5.8,0,8.2-3.4,9.2-6.1V66.9z M96.6,54.8c0,10.8-8.5,19.9-17.9,19.9c-3.7,0-7.3-1.4-10.3-3.8
	c0.6-1.1,1-2.4,1-3.9v-8.6c5.2,0,7.9-2.7,9.3-5.4c1.4,2.7,4.1,5.4,9.3,5.4c4.4,0,7-1.9,8.6-4.1V54.8z M85.3,61.7
	c-0.1,0.2-0.3,0.4-0.4,0.6c-0.1,0.2-0.2,0.3-0.3,0.4c-0.2,0.3-0.4,0.6-0.6,0.7H71.2v2.8h13c0.8,0,1.4-0.5,1.7-0.8
	c0.4-0.4,0.7-0.8,0.9-1.2c0.1-0.2,0.3-0.4,0.4-0.5c0.1-0.2,0.2-0.3,0.3-0.5c0.1-0.1,0.2-0.3,0.3-0.4c0.1-0.1,0.1-0.1,0.1-0.1
	l-1.4-1.1C86.2,61.4,85.5,61.4,85.3,61.7z"/>
</svg>
